<?xml version="1.0" encoding="UTF-8"?>
<svg version="1.1" xmlns="http://www.w3.org/2000/svg" width="218" height="82">
<path d="M0 0 C2.12472576 -0.05386629 4.24983652 -0.09273071 6.375 -0.125 C7.55835937 -0.14820313 8.74171875 -0.17140625 9.9609375 -0.1953125 C13 0 13 0 15 2 C15.66 2.33 16.32 2.66 17 3 C21 5 21 5 25 7 C25 7.66 25 8.32 25 9 C25.31478446 10.33783393 25.64587656 11.67203709 26 13 C25.34 13.33 24.68 13.66 24 14 C26.64 14 29.28 14 32 14 C32.1875 16.3125 32.1875 16.3125 32 19 C30.625 20.5 30.625 20.5 29 22 C28.31246699 23.65816784 27.64438717 25.32459336 27 27 C26.34 27.66 25.68 28.32 25 29 C24.3162955 30.32467746 23.65035814 31.65863633 23 33 C22.34 33.99 21.68 34.98 21 36 C20.67 36.99 20.34 37.98 20 39 C19.34 39.66 18.68 40.32 18 41 C18 41.66 18 42.32 18 43 C14.52176885 44.15941038 12.54104422 43.70820884 9 43 C8.67 42.01 8.34 41.02 8 40 C6.53955008 36.87046446 4.79990663 33.94530176 3 31 C2.01 32.2375 2.01 32.2375 1 33.5 C-3.02366618 36.85305515 -4.90700467 36.43160977 -10 36 C-10 32 -10 32 -8 30 C-7.08571661 28.09291157 -7.08571661 28.09291157 -7 26 C-7.48082031 25.59394531 -7.96164063 25.18789063 -8.45703125 24.76953125 C-11.32439951 21.4811317 -10.5121967 17.27070782 -10.43359375 13.109375 C-10 10 -10 10 -7.5625 6.875 C-6.716875 6.25625 -5.87125 5.6375 -5 5 C-4.67 4.01 -4.34 3.02 -4 2 C-1.9375 1.3125 -1.9375 1.3125 0 1 C0 0.67 0 0.34 0 0 Z M1 4 C0.67 4.66 0.34 5.32 0 6 C-2.0625 6.625 -2.0625 6.625 -4 7 C-4.12375 7.639375 -4.2475 8.27875 -4.375 8.9375 C-4.58125 9.618125 -4.7875 10.29875 -5 11 C-5.99 11.495 -5.99 11.495 -7 12 C-8.06349529 17.5758241 -8.06349529 17.5758241 -7 23 C-6.01 23 -5.02 23 -4 23 C-0.04007007 19.14059553 -0.04007007 19.14059553 1 14 C2.3125 12.5 2.3125 12.5 4 11 C4.474375 10.4225 4.94875 9.845 5.4375 9.25 C7 8 7 8 9.0625 8.1875 C11.67150251 9.28159783 12.77316486 10.53215253 14 13.0625 C14.84589942 15.16865601 14.84589942 15.16865601 17 16 C17.625 18.0625 17.625 18.0625 18 20 C19.98491642 19.73323796 19.98491642 19.73323796 22 19 C22.33 18.01 22.66 17.02 23 16 C21.36579592 14.28408572 19.87407865 12.91852148 17.875 11.625 C16 10 16 10 15.5625 7.4375 C15.376875 6.633125 15.19125 5.82875 15 5 C10.49714469 2.29828681 5.88558381 2.37147206 1 4 Z M21 10 C21.33 10.66 21.66 11.32 22 12 C22.33 11.34 22.66 10.68 23 10 C22.34 10 21.68 10 21 10 Z M7 20 C6.67 20.99 6.34 21.98 6 23 C7.32 23.99 8.64 24.98 10 26 C10.66 25.01 11.32 24.02 12 23 C10.35 22.01 8.7 21.02 7 20 Z M15 23 C12.53176154 26.34401469 12.53176154 26.34401469 12.3125 30.3125 C12.539375 30.869375 12.76625 31.42625 13 32 C13.66 31.34 14.32 30.68 15 30 C15 29.34 15 28.68 15 28 C15.99 27.34 16.98 26.68 18 26 C18 25.34 18 24.68 18 24 C17.01 23.67 16.02 23.34 15 23 Z M-6 24 C-5.34 24.66 -4.68 25.32 -4 26 C-4 25.34 -4 24.68 -4 24 C-4.66 24 -5.32 24 -6 24 Z M3 26 C4 28 4 28 4 28 Z M5 27 C6 29 6 29 6 29 Z " fill="#02B4FB" transform="translate(12,11)"/>
<path d="M0 0 C6 0 6 0 8.5546875 1.96875 C9.32039063 2.8040625 10.08609375 3.639375 10.875 4.5 C11.65617187 5.3353125 12.43734375 6.170625 13.2421875 7.03125 C13.82226562 7.6809375 14.40234375 8.330625 15 9 C15.33 6.03 15.66 3.06 16 0 C18.97 0 21.94 0 25 0 C25 9.57 25 19.14 25 29 C18 27 18 27 16.875 25.0625 C16.58625 24.381875 16.2975 23.70125 16 23 C14.34051852 21.98812105 12.67419438 20.9873454 11 20 C10.67 19.01 10.34 18.02 10 17 C10 20.63 10 24.26 10 28 C6.7 28 3.4 28 0 28 C0 18.76 0 9.52 0 0 Z " fill="#F0F0F0" transform="translate(49,13)"/>
<path d="M0 0 C2.908125 0.103125 5.81625 0.20625 8.8125 0.3125 C9.72491455 0.33739502 10.6373291 0.36229004 11.57739258 0.38793945 C12.30079834 0.42105225 13.0242041 0.45416504 13.76953125 0.48828125 C14.87711792 0.52755737 14.87711792 0.52755737 16.00708008 0.56762695 C18.49718595 1.10786675 19.35633495 2.10131964 21 4 C21.5465625 4.41636719 22.093125 4.83273438 22.65625 5.26171875 C25.84590767 9.38787475 24.59588297 16.09801936 24 21 C22.71147585 24.12769964 21.79592111 24.87266872 19 27 C13 28 13 28 0 28 C0 18.76 0 9.52 0 0 Z M8 8 C8 11.96 8 15.92 8 20 C11.70488428 19.07377893 13.16604069 18.32789515 16 16 C15.80528889 14.05000871 15.80528889 14.05000871 15 12 C13.0162233 10.71563266 13.0162233 10.71563266 11 10 C11 9.34 11 8.68 11 8 C10.01 8 9.02 8 8 8 Z " fill="#EFF0EF" transform="translate(98,13)"/>
<path d="M0 0 C2.7225 -0.0825 5.445 -0.165 8.25 -0.25 C9.10110352 -0.28641602 9.95220703 -0.32283203 10.82910156 -0.36035156 C14.47551465 -0.41389908 16.43396079 -0.38115644 19.5234375 1.69921875 C21.2596913 4.40465126 21.48087193 5.87190514 21.375 9.0625 C21.35566406 10.34833984 21.35566406 10.34833984 21.3359375 11.66015625 C21 14 21 14 19 17 C19.99 18.6396875 19.99 18.6396875 21 20.3125 C22.58464929 22.93707538 23 23.8256378 23 27 C19.7 27 16.4 27 13 27 C11.68 24.69 10.36 22.38 9 20 C9 22.31 9 24.62 9 27 C6.03 27 3.06 27 0 27 C0 18.09 0 9.18 0 0 Z M8 7 C8 8.32 8 9.64 8 11 C8.99 11 9.98 11 11 11 C11.33 9.68 11.66 8.36 12 7 C10.68 7 9.36 7 8 7 Z " fill="#EDEDED" transform="translate(124,14)"/>
<path d="M0 0 C2.743125 -0.0825 5.48625 -0.165 8.3125 -0.25 C9.60281128 -0.30462402 9.60281128 -0.30462402 10.91918945 -0.36035156 C16.45748758 -0.44138389 16.45748758 -0.44138389 19.01171875 1.63671875 C20.2376698 4.56834082 20.46850073 6.88501131 20.5 10.0625 C20.5309375 11.10535156 20.561875 12.14820313 20.59375 13.22265625 C20 16 20 16 17.70703125 17.859375 C14.33455884 19.28038791 11.62301815 19.21311871 8 19 C8.33 21.64 8.66 24.28 9 27 C5.7 27 2.4 27 -1 27 C-0.67 18.09 -0.34 9.18 0 0 Z M8 7 C8 8.32 8 9.64 8 11 C9.65 10.67 11.3 10.34 13 10 C12.34 9.67 11.68 9.34 11 9 C11 8.34 11 7.68 11 7 C10.01 7 9.02 7 8 7 Z " fill="#F2F1F1" transform="translate(160,14)"/>
<path d="M0 0 C0.66 0.226875 1.32 0.45375 2 0.6875 C2.99 1.0175 3.98 1.3475 5 1.6875 C5.33 3.3375 5.66 4.9875 6 6.6875 C6.66 6.6875 7.32 6.6875 8 6.6875 C9.00368433 9.77575947 9.42756666 11.8259851 7.953125 14.796875 C7.04062991 16.20150227 6.09972573 17.58815811 5.12890625 18.953125 C3.81816032 20.62196334 3.81816032 20.62196334 4 22.6875 C2.02 22.3575 0.04 22.0275 -2 21.6875 C-1.67 20.6975 -1.34 19.7075 -1 18.6875 C-1.721875 19.409375 -2.44375 20.13125 -3.1875 20.875 C-4.115625 21.803125 -5.04375 22.73125 -6 23.6875 C-6.763125 24.615625 -7.52625 25.54375 -8.3125 26.5 C-12.07450528 29.56209732 -14.25580313 29.08955058 -19 28.6875 C-19 24.6875 -19 24.6875 -17 22.6875 C-16.67 21.6975 -16.34 20.7075 -16 19.6875 C-15.505 19.213125 -15.01 18.73875 -14.5 18.25 C-12.84960547 16.78985284 -12.84960547 16.78985284 -12.5 14.6875 C-11.88614507 12.23208029 -10.76233218 11.44983218 -9 9.6875 C-8.63837971 8.36155895 -8.30271961 7.02811543 -8 5.6875 C-7.34 5.0275 -6.68 4.3675 -6 3.6875 C-5.67 3.0275 -5.34 2.3675 -5 1.6875 C-2 -0.3125 -2 -0.3125 0 0 Z M-2 12.6875 C-2.33 13.6775 -2.66 14.6675 -3 15.6875 C-1.68 16.6775 -0.36 17.6675 1 18.6875 C1.66 17.6975 2.32 16.7075 3 15.6875 C1.35 14.6975 -0.3 13.7075 -2 12.6875 Z M-6 18.6875 C-5 20.6875 -5 20.6875 -5 20.6875 Z " fill="#DF204B" transform="translate(21,18.3125)"/>
<path d="M0 0 C3.875 2.75 3.875 2.75 5 5 C4.96298354 7.18966589 4.84812937 9.37842007 4.6875 11.5625 C4.60886719 12.73941406 4.53023437 13.91632812 4.44921875 15.12890625 C4.30097656 16.07636719 4.15273438 17.02382813 4 18 C3.01 18.495 3.01 18.495 2 19 C1.67 19.66 1.34 20.32 1 21 C-1 23 -1 23 -3 24 C-3 25.32 -3 26.64 -3 28 C-3.99 28 -4.98 28 -6 28 C-5.67 29.98 -5.34 31.96 -5 34 C-5.99 34 -6.98 34 -8 34 C-8 32.02 -8 30.04 -8 28 C-9.423125 28.2475 -9.423125 28.2475 -10.875 28.5 C-14 29 -14 29 -16 29 C-13.8614515 31.1385485 -12.86724686 31.42655063 -10 32 C-12 34 -12 34 -14.5625 34.1875 C-17 34 -17 34 -18 33 C-18.14115161 30.32941149 -18.04247107 27.67567762 -18 25 C-18.33 25.99 -18.66 26.98 -19 28 C-19.66 28 -20.32 28 -21 28 C-20.67 28.99 -20.34 29.98 -20 31 C-19.67 31.99 -19.34 32.98 -19 34 C-21.31 34 -23.62 34 -26 34 C-25.64766839 28.5388601 -25.64766839 28.5388601 -25 26 C-22.9375 24.5 -22.9375 24.5 -21 24 C-24.18762365 21.87491756 -26.26512223 21.4979837 -30 21 C-30.33 18.69 -30.66 16.38 -31 14 C-30.34 13.67 -29.68 13.34 -29 13 C-29.66 12.34 -30.32 11.68 -31 11 C-27.67941669 11 -25.91456338 11.43061972 -23 13 C-22.28272222 14.64551962 -21.61674772 16.31422289 -21 18 C-17.65727795 21.47128829 -13.56228652 22.01150459 -9 23 C-9 22.34 -9 21.68 -9 21 C-8.4225 20.731875 -7.845 20.46375 -7.25 20.1875 C-3.5596129 18.2397957 -1.33222519 16.49833779 1 13 C1.45394552 10.72087062 1.45394552 10.72087062 1.625 8.3125 C1.69976562 7.50425781 1.77453125 6.69601563 1.8515625 5.86328125 C1.90054688 5.24839844 1.94953125 4.63351563 2 4 C1.34 3.67 0.68 3.34 0 3 C0 2.01 0 1.02 0 0 Z M-28 14 C-27 16 -27 16 -27 16 Z M-6 24 C-6.99 24.66 -7.98 25.32 -9 26 C-7.35 26 -5.7 26 -4 26 C-4.66 25.34 -5.32 24.68 -6 24 Z " fill="#46D43E" transform="translate(41,36)"/>
<path d="M0 0 C2.97 0 5.94 0 9 0 C9 9.24 9 18.48 9 28 C6.03 28 3.06 28 0 28 C-1.08266248 24.75201257 -1.03436186 22.64103173 -0.87890625 19.23828125 C-0.83056641 18.12001953 -0.78222656 17.00175781 -0.73242188 15.84960938 C-0.67634766 14.68236328 -0.62027344 13.51511719 -0.5625 12.3125 C-0.51029297 11.13365234 -0.45808594 9.95480469 -0.40429688 8.74023438 C-0.27453806 5.82655906 -0.13956868 2.91321922 0 0 Z " fill="#F3F3F3" transform="translate(148,13)"/>
<path d="M0 0 C2.64 0 5.28 0 8 0 C8.33 8.91 8.66 17.82 9 27 C5.7 27 2.4 27 -1 27 C-0.67 18.09 -0.34 9.18 0 0 Z " fill="#F5F4F4" transform="translate(77,14)"/>
<path d="M0 0 C2.12472576 -0.05386629 4.24983652 -0.09273071 6.375 -0.125 C7.55835937 -0.14820313 8.74171875 -0.17140625 9.9609375 -0.1953125 C13 0 13 0 15 2 C15.66 2.33 16.32 2.66 17 3 C21 5 21 5 25 7 C25 7.66 25 8.32 25 9 C25.31478446 10.33783393 25.64587656 11.67203709 26 13 C25.34 13 24.68 13 24 13 C23.34 13.66 22.68 14.32 22 15 C19.69 13.68 17.38 12.36 15 11 C15 9.35 15 7.7 15 6 C12.525 5.505 12.525 5.505 10 5 C10 4.34 10 3.68 10 3 C2.31956505 4.63257178 2.31956505 4.63257178 -4 9 C-4.33 9.99 -4.66 10.98 -5 12 C-5.66 12 -6.32 12 -7 12 C-6.67 12.99 -6.34 13.98 -6 15 C-6.66 15 -7.32 15 -8 15 C-7.67 17.64 -7.34 20.28 -7 23 C-6.01 23.33 -5.02 23.66 -4 24 C-4.33 24.66 -4.66 25.32 -5 26 C-6.9375 25.25 -6.9375 25.25 -9 24 C-10.52909574 19.53109439 -10.70110572 14.64388302 -10 10 C-7.5625 7.0625 -7.5625 7.0625 -5 5 C-4.67 4.01 -4.34 3.02 -4 2 C-1.9375 1.3125 -1.9375 1.3125 0 1 C0 0.67 0 0.34 0 0 Z M21 10 C21.33 10.66 21.66 11.32 22 12 C22.33 11.34 22.66 10.68 23 10 C22.34 10 21.68 10 21 10 Z " fill="#AE5E0E" transform="translate(12,11)"/>
<path d="M0 0 C0.1875 2.3125 0.1875 2.3125 0 5 C-1.375 6.5 -1.375 6.5 -3 8 C-3.68753301 9.65816784 -4.35561283 11.32459336 -5 13 C-5.66 13.66 -6.32 14.32 -7 15 C-7.69748583 16.31747324 -8.36959957 17.64914193 -9 19 C-9.33 17.35 -9.66 15.7 -10 14 C-11.65 14 -13.3 14 -15 14 C-15 14.66 -15 15.32 -15 16 C-15.99 16 -16.98 16 -18 16 C-17.0022242 13.00667261 -16.2477975 12.05233685 -14 10 C-14.66 9.67 -15.32 9.34 -16 9 C-14 6 -14 6 -11 5 C-10.6278958 3.67696283 -10.29369827 2.34262065 -10 1 C-6.78548731 -0.60725635 -3.56387464 -0.05748185 0 0 Z " fill="#082AC2" transform="translate(44,25)"/>
<path d="M0 0 C4.74251497 1.66866267 4.74251497 1.66866267 7 3 C8.1875 5.5 8.1875 5.5 9 8 C10.93711342 9.69497424 12.70488948 10.85244474 15 12 C13.02 12.99 13.02 12.99 11 14 C11 15.32 11 16.64 11 18 C10.34 18 9.68 18 9 18 C9.33 18.99 9.66 19.98 10 21 C10.33 21.99 10.66 22.98 11 24 C8.69 24 6.38 24 4 24 C4.35233161 18.5388601 4.35233161 18.5388601 5 16 C7.0625 14.5 7.0625 14.5 9 14 C5.81237635 11.87491756 3.73487777 11.4979837 0 11 C-0.33 8.69 -0.66 6.38 -1 4 C-0.34 3.67 0.32 3.34 1 3 C0.34 2.34 -0.32 1.68 -1 1 C-0.67 0.67 -0.34 0.34 0 0 Z M2 4 C3 6 3 6 3 6 Z " fill="#68BE27" transform="translate(11,46)"/>
<path d="M0 0 C-4.49962603 10.98578908 -4.49962603 10.98578908 -8 14 C-10.79956939 14.40916783 -13.14678982 14.23776751 -16 14 C-16 10 -16 10 -14 8 C-13.67 7.01 -13.34 6.02 -13 5 C-8.66695623 0.56378852 -6.41673788 -0.64167379 0 0 Z " fill="#FB27E5" transform="translate(18,33)"/>
<path d="M0 0 C1.32 0 2.64 0 4 0 C4.66 1.65 5.32 3.3 6 5 C6.66 5 7.32 5 8 5 C8.33 6.32 8.66 7.64 9 9 C9 6.03 9 3.06 9 0 C10.32 0.33 11.64 0.66 13 1 C12.67 5.29 12.34 9.58 12 14 C10.68 14 9.36 14 8 14 C7.34 12.35 6.68 10.7 6 9 C5.34 9 4.68 9 4 9 C3.67 10.98 3.34 12.96 3 15 C2.01 15 1.02 15 0 15 C0 10.05 0 5.1 0 0 Z " fill="#3D861C" transform="translate(90,44)"/>
<path d="M0 0 C4.66666667 2.33333333 9.33333333 4.66666667 14 7 C14 7.66 14 8.32 14 9 C14.31478446 10.33783393 14.64587656 11.67203709 15 13 C14.34 13 13.68 13 13 13 C12.34 13.66 11.68 14.32 11 15 C7.535 13.02 7.535 13.02 4 11 C4 9.35 4 7.7 4 6 C2.35 5.67 0.7 5.34 -1 5 C-1.33 3.68 -1.66 2.36 -2 1 C-1.34 0.67 -0.68 0.34 0 0 Z M10 10 C10.33 10.66 10.66 11.32 11 12 C11.33 11.34 11.66 10.68 12 10 C11.34 10 10.68 10 10 10 Z " fill="#C44E1C" transform="translate(23,11)"/>
<path d="M0 0 C4.29 0.33 8.58 0.66 13 1 C13 2.32 13 3.64 13 5 C12.34 5.66 11.68 6.32 11 7 C11 7.66 11 8.32 11 9 C7.52176885 10.15941038 5.54104422 9.70820884 2 9 C1.67 8.01 1.34 7.02 1 6 C0.62875 5.319375 0.2575 4.63875 -0.125 3.9375 C-0.41375 3.298125 -0.7025 2.65875 -1 2 C-0.67 1.34 -0.34 0.68 0 0 Z " fill="#08B9CB" transform="translate(19,45)"/>
<path d="M0 0 C1.60875 -0.020625 3.2175 -0.04125 4.875 -0.0625 C5.77992188 -0.07410156 6.68484375 -0.08570313 7.6171875 -0.09765625 C10 0 10 0 12 1 C11.9278125 1.75925781 11.855625 2.51851562 11.78125 3.30078125 C11.6884375 4.29464844 11.595625 5.28851563 11.5 6.3125 C11.4071875 7.29863281 11.314375 8.28476562 11.21875 9.30078125 C10.95961143 12.04702139 10.95961143 12.04702139 11 15 C10.4225 14.360625 9.845 13.72125 9.25 13.0625 C7.01937599 11.01776132 5.92563609 10.41794801 3 10 C3 11.32 3 12.64 3 14 C2.34 14 1.68 14 1 14 C0.67 9.38 0.34 4.76 0 0 Z M3 2 C3 3.98 3 5.96 3 8 C4.98 8 6.96 8 9 8 C8.34 6.02 7.68 4.04 7 2 C5.68 2 4.36 2 3 2 Z " fill="#2C9632" transform="translate(129,44)"/>
<path d="M0 0 C3.875 2.75 3.875 2.75 5 5 C4.96298354 7.18966589 4.84812937 9.37842007 4.6875 11.5625 C4.56955078 13.32787109 4.56955078 13.32787109 4.44921875 15.12890625 C4.30097656 16.07636719 4.15273438 17.02382813 4 18 C3.34 18.33 2.68 18.66 2 19 C1.67 19.66 1.34 20.32 1 21 C-1 23 -1 23 -3 24 C-3.33 24.66 -3.66 25.32 -4 26 C-6.5 24.625 -6.5 24.625 -9 23 C-9 22.34 -9 21.68 -9 21 C-8.4225 20.731875 -7.845 20.46375 -7.25 20.1875 C-3.5596129 18.2397957 -1.33222519 16.49833779 1 13 C1.45394552 10.72087062 1.45394552 10.72087062 1.625 8.3125 C1.69976562 7.50425781 1.77453125 6.69601563 1.8515625 5.86328125 C1.90054688 5.24839844 1.94953125 4.63351563 2 4 C1.34 3.67 0.68 3.34 0 3 C0 2.01 0 1.02 0 0 Z " fill="#2DB83E" transform="translate(41,36)"/>
<path d="M0 0 C2.81487005 0.62552668 4.53959235 1.34542683 6.22265625 3.73828125 C8.22064216 7.54089959 9.54837256 10.61301952 9 15 C7.0625 14.625 7.0625 14.625 5 14 C4.67 13.34 4.34 12.68 4 12 C2.02 12 0.04 12 -2 12 C-2.33 12.66 -2.66 13.32 -3 14 C-3.99 13.67 -4.98 13.34 -6 13 C-5.57316368 11.72554546 -5.13302798 10.45554118 -4.6875 9.1875 C-4.44386719 8.47980469 -4.20023438 7.77210937 -3.94921875 7.04296875 C-2.93081271 4.85109073 -1.71034576 3.67201868 0 2 C0 1.34 0 0.68 0 0 Z M0 6 C-0.33 6.99 -0.66 7.98 -1 9 C0.65 9 2.3 9 4 9 C4 8.34 4 7.68 4 7 C2.68 6.67 1.36 6.34 0 6 Z " fill="#27AB3B" transform="translate(153,44)"/>
<path d="M0 0 C2.8125 -0.1875 2.8125 -0.1875 6 0 C7.69921875 1.51171875 7.69921875 1.51171875 9 3 C8.45859375 3.83144531 8.45859375 3.83144531 7.90625 4.6796875 C7.4421875 5.40414062 6.978125 6.12859375 6.5 6.875 C6.0359375 7.59429687 5.571875 8.31359375 5.09375 9.0546875 C3.83663499 10.91860466 3.83663499 10.91860466 4 13 C1.03 12.505 1.03 12.505 -2 12 C-1.67 11.01 -1.34 10.02 -1 9 C-3.97 11.475 -3.97 11.475 -7 14 C-5.87548273 11.0280615 -4.77706209 8.66559313 -3 6 C-1.68 6.66 -0.36 7.32 1 8 C1.33 7.34 1.66 6.68 2 6 C1.34 5.34 0.68 4.68 0 4 C0 2.68 0 1.36 0 0 Z " fill="#EC2569" transform="translate(21,28)"/>
<path d="M0 0 C3.3 0 6.6 0 10 0 C10.33 0.99 10.66 1.98 11 3 C8.03 2.67 5.06 2.34 2 2 C2 3.32 2 4.64 2 6 C4.64 6 7.28 6 10 6 C9.67 6.66 9.34 7.32 9 8 C6.69 8 4.38 8 2 8 C2 9.32 2 10.64 2 12 C4.64 12 7.28 12 10 12 C10 12.66 10 13.32 10 14 C6.7 14 3.4 14 0 14 C0 9.38 0 4.76 0 0 Z " fill="#68BC27" transform="translate(71,44)"/>
<path d="M0 0 C3.3 0 6.6 0 10 0 C10.33 1.32 10.66 2.64 11 4 C7.28400809 4.20086443 6.22791555 4.1519437 3 2 C2.67 2.99 2.34 3.98 2 5 C1.34 5 0.68 5 0 5 C0.66 6.98 1.32 8.96 2 11 C4.64 11 7.28 11 10 11 C9.67 11.99 9.34 12.98 9 14 C7.54176788 14.0270043 6.08339325 14.04639787 4.625 14.0625 C3.81289063 14.07410156 3.00078125 14.08570313 2.1640625 14.09765625 C0 14 0 14 -2 13 C-3.65333719 9.27999131 -2.39779103 6.64978768 -1 3 C-0.67 2.01 -0.34 1.02 0 0 Z " fill="#77A824" transform="translate(52,44)"/>
<path d="M0 0 C0.66 1.65 1.32 3.3 2 5 C1.34 5.66 0.68 6.32 0 7 C-0.69748583 8.31747324 -1.36959957 9.64914193 -2 11 C-2.33 9.35 -2.66 7.7 -3 6 C-4.65 6 -6.3 6 -8 6 C-8 6.66 -8 7.32 -8 8 C-8.99 8 -9.98 8 -11 8 C-9.208612 2.62583601 -5.57736488 0 0 0 Z " fill="#0878BE" transform="translate(37,33)"/>
<path d="M0 0 C2.64 0 5.28 0 8 0 C9.231394 2.46278801 9.07159196 4.2795055 9 7 C6.05549278 7.98150241 4.06481021 8.1613058 1 8 C0 7 0 7 -0.0625 3.4375 C-0.041875 2.303125 -0.02125 1.16875 0 0 Z M4 2 C3.67 2.99 3.34 3.98 3 5 C3.66 5 4.32 5 5 5 C5.33 4.01 5.66 3.02 6 2 C5.34 2 4.68 2 4 2 Z " fill="#B5B5B4" transform="translate(47,62)"/>
<path d="M0 0 C0.33 0.66 0.66 1.32 1 2 C1.66 2 2.32 2 3 2 C2.67 2.99 2.34 3.98 2 5 C1.34 5 0.68 5 0 5 C0.33 5.99 0.66 6.98 1 8 C0.34 8 -0.32 8 -1 8 C-0.67 10.64 -0.34 13.28 0 16 C0.99 16.33 1.98 16.66 3 17 C2.67 17.66 2.34 18.32 2 19 C0.0625 18.25 0.0625 18.25 -2 17 C-3.04230168 14.00587225 -3.19292041 11.09114745 -3.25 7.9375 C-3.27578125 7.08027344 -3.3015625 6.22304688 -3.328125 5.33984375 C-2.93849591 2.56141727 -2.14971323 1.72542773 0 0 Z " fill="#9E6E0E" transform="translate(5,18)"/>
<path d="M0 0 C0.66 0.66 1.32 1.32 2 2 C2.99 1.67 3.98 1.34 5 1 C5 3.64 5 6.28 5 9 C2.69 9 0.38 9 -2 9 C-2 6.36 -2 3.72 -2 1 C-1.34 0.67 -0.68 0.34 0 0 Z M0 5 C1 8 1 8 1 8 Z " fill="#B2B6B5" transform="translate(59,61)"/>
<path d="M0 0 C-0.99 1.98 -1.98 3.96 -3 6 C-5.31 6 -7.62 6 -10 6 C-10.33 6.66 -10.66 7.32 -11 8 C-11.99 8 -12.98 8 -14 8 C-11.68714805 1.06144415 -6.82839054 -0.68283905 0 0 Z " fill="#E92598" transform="translate(18,33)"/>
<path d="M0 0 C3.96 0 7.92 0 12 0 C11.67 0.66 11.34 1.32 11 2 C9.68 2 8.36 2 7 2 C7 5.96 7 9.92 7 14 C6.34 14 5.68 14 5 14 C5 10.04 5 6.08 5 2 C3.35 2.33 1.7 2.66 0 3 C0 2.01 0 1.02 0 0 Z " fill="#45A331" transform="translate(110,44)"/>
<path d="M0 0 C2.09749995 2.35968744 2.96905704 3.54616994 3.1875 6.75 C3.125625 7.4925 3.06375 8.235 3 9 C0 8 0 8 -2 7 C-2 7.66 -2 8.32 -2 9 C-2.99 8.67 -3.98 8.34 -5 8 C-4.125 3.25 -4.125 3.25 -3 1 C-2.01 0.67 -1.02 0.34 0 0 Z " fill="#8D8B8A" transform="translate(107,61)"/>
<path d="M0 0 C2.09749995 2.35968744 2.96905704 3.54616994 3.1875 6.75 C3.125625 7.4925 3.06375 8.235 3 9 C0 8 0 8 -2 7 C-2 7.66 -2 8.32 -2 9 C-2.99 9 -3.98 9 -5 9 C-4.125 3.25 -4.125 3.25 -3 1 C-2.01 0.67 -1.02 0.34 0 0 Z " fill="#A7A8A6" transform="translate(144,61)"/>
<path d="M0 0 C3.125 0.375 3.125 0.375 6 1 C6 1.99 6 2.98 6 4 C5.01 4 4.02 4 3 4 C2.67 4.66 2.34 5.32 2 6 C3.32 6 4.64 6 6 6 C5.67 6.99 5.34 7.98 5 9 C3.02 9 1.04 9 -1 9 C-2.25640898 6.48718205 -2.20872719 4.78302919 -2 2 C-1.34 1.34 -0.68 0.68 0 0 Z " fill="#9C9A9A" transform="translate(72,61)"/>
<path d="M0 0 C4.66666667 2.33333333 9.33333333 4.66666667 14 7 C10.7 7.33 7.4 7.66 4 8 C3.67 7.34 3.34 6.68 3 6 C0.97536745 5.34786708 0.97536745 5.34786708 -1 5 C-1.33 3.68 -1.66 2.36 -2 1 C-1.34 0.67 -0.68 0.34 0 0 Z " fill="#A74315" transform="translate(23,11)"/>
<path d="M0 0 C1.98 0 3.96 0 6 0 C6 2.64 6 5.28 6 8 C1.44615385 8.36923077 1.44615385 8.36923077 -0.8125 6.5 C-1.204375 6.005 -1.59625 5.51 -2 5 C-1.34 5 -0.68 5 0 5 C0 3.35 0 1.7 0 0 Z " fill="#ABA8A8" transform="translate(174,62)"/>
<path d="M0 0 C1.98 0 3.96 0 6 0 C6 2.64 6 5.28 6 8 C4.02 8 2.04 8 0 8 C0 5.36 0 2.72 0 0 Z " fill="#838380" transform="translate(79,62)"/>
<path d="M0 0 C1.32 0.33 2.64 0.66 4 1 C3.67 4.63 3.34 8.26 3 12 C5.31 12 7.62 12 10 12 C10 12.66 10 13.32 10 14 C7.03 14 4.06 14 1 14 C0.67 9.38 0.34 4.76 0 0 Z " fill="#36CC45" transform="translate(169,44)"/>
<path d="M0 0 C1.65 0 3.3 0 5 0 C6.76462683 3.08809695 7 4.23312136 7 8 C6.401875 7.814375 5.80375 7.62875 5.1875 7.4375 C2.83591238 6.77906313 2.83591238 6.77906313 0 8 C0 5.36 0 2.72 0 0 Z M2 2 C2 2.66 2 3.32 2 4 C2.99 3.67 3.98 3.34 5 3 C4.01 2.67 3.02 2.34 2 2 Z " fill="#BFBEBD" transform="translate(39,62)"/>
<path d="M0 0 C1.32 0.33 2.64 0.66 4 1 C3.67 5.29 3.34 9.58 3 14 C1.68 14 0.36 14 -1 14 C-1.66 11.69 -2.32 9.38 -3 7 C-1.515 7.99 -1.515 7.99 0 9 C0 6.03 0 3.06 0 0 Z " fill="#51BC2B" transform="translate(99,44)"/>
<path d="M0 0 C2.33333333 2.33333333 4.66666667 4.66666667 7 7 C4.69 7.66 2.38 8.32 0 9 C-0.99 8.01 -1.98 7.02 -3 6 C-1.125 1.125 -1.125 1.125 0 0 Z " fill="#07ADF4" transform="translate(19,37)"/>
<path d="M0 0 C1.65 0.33 3.3 0.66 5 1 C5.66 2.98 6.32 4.96 7 7 C3.86650268 8.04449911 3.01031744 7.93423645 0 7 C-0.33 5.68 -0.66 4.36 -1 3 C-0.34 3 0.32 3 1 3 C0.67 2.01 0.34 1.02 0 0 Z " fill="#C2C2C0" transform="translate(91,62)"/>
<path d="M0 0 C0.66 0.33 1.32 0.66 2 1 C1.73958333 2.98567708 1.47916667 4.97135417 1.21875 6.95703125 C0.946767 9.15471706 0.946767 9.15471706 1 12 C0.4225 11.360625 -0.155 10.72125 -0.75 10.0625 C-2.98062401 8.01776132 -4.07436391 7.41794801 -7 7 C-7.33 8.32 -7.66 9.64 -8 11 C-8 8.36 -8 5.72 -8 3 C-7.67 3.66 -7.34 4.32 -7 5 C-5.02 5 -3.04 5 -1 5 C-0.67 3.35 -0.34 1.7 0 0 Z " fill="#3ABF3E" transform="translate(139,47)"/>
<path d="M0 0 C2.31 0 4.62 0 7 0 C7.33 0.99 7.66 1.98 8 3 C6.02 3 4.04 3 2 3 C4.1385485 5.1385485 5.13275314 5.42655063 8 6 C6 8 6 8 3.4375 8.1875 C1 8 1 8 0 7 C-0.04092937 4.66702567 -0.04241723 2.33294775 0 0 Z " fill="#ABABAA" transform="translate(23,62)"/>
<path d="M0 0 C0.9590625 0.2784375 0.9590625 0.2784375 1.9375 0.5625 C2.9584375 0.7790625 2.9584375 0.7790625 4 1 C4.33 0.67 4.66 0.34 5 0 C5.33 0 5.66 0 6 0 C6.33 2.64 6.66 5.28 7 8 C4.36 8 1.72 8 -1 8 C-0.67 5.36 -0.34 2.72 0 0 Z " fill="#BEBDBC" transform="translate(149,62)"/>
<path d="M0 0 C2.31 0 4.62 0 7 0 C7 0.99 7 1.98 7 3 C5.02 3 3.04 3 1 3 C3.1385485 5.1385485 4.13275314 5.42655063 7 6 C5 8 5 8 2.375 8.125 C1.59125 8.08375 0.8075 8.0425 0 8 C-0.79953138 4.71303767 -1.09658936 3.28976808 0 0 Z " fill="#B5B4B4" transform="translate(158,62)"/>
<path d="M0 0 C2.31 0 4.62 0 7 0 C7 1.98 7 3.96 7 6 C5.35 6 3.7 6 2 6 C2 6.66 2 7.32 2 8 C1.34 8 0.68 8 0 8 C0 5.36 0 2.72 0 0 Z M2 2 C2.33 2.66 2.66 3.32 3 4 C3.66 3.34 4.32 2.68 5 2 C4.01 2 3.02 2 2 2 Z " fill="#B8B7B8" transform="translate(120,62)"/>
<path d="M0 0 C1.98 0 3.96 0 6 0 C6.33 1.65 6.66 3.3 7 5 C5.35 5.33 3.7 5.66 2 6 C2 6.66 2 7.32 2 8 C1.01 7.67 0.02 7.34 -1 7 C-0.67 4.69 -0.34 2.38 0 0 Z M2 2 C2 2.66 2 3.32 2 4 C2.66 3.67 3.32 3.34 4 3 C3.34 2.67 2.68 2.34 2 2 Z " fill="#BEBEBD" transform="translate(112,62)"/>
<path d="M0 0 C1.98 0 3.96 0 6 0 C6 0.66 6 1.32 6 2 C5.34 2 4.68 2 4 2 C4.33 2.99 4.66 3.98 5 5 C5.33 5.99 5.66 6.98 6 8 C3.69 8 1.38 8 -1 8 C-0.67 5.36 -0.34 2.72 0 0 Z " fill="#C4C5C5" transform="translate(16,62)"/>
<path d="M0 0 C1.093125 0.226875 2.18625 0.45375 3.3125 0.6875 C2.9825 2.0075 2.6525 3.3275 2.3125 4.6875 C-0.9875 5.0175 -4.2875 5.3475 -7.6875 5.6875 C-6.09021454 0.89564363 -5.26733035 -0.44638393 0 0 Z " fill="#E6216D" transform="translate(15.6875,28.3125)"/>
<path d="M0 0 C1.65 0 3.3 0 5 0 C4.979375 0.94875 4.95875 1.8975 4.9375 2.875 C4.77448174 5.90666283 4.77448174 5.90666283 6 8 C3.69 8 1.38 8 -1 8 C-0.67 5.36 -0.34 2.72 0 0 Z " fill="#CDCECD" transform="translate(1,62)"/>
<path d="M0 0 C0.33 0 0.66 0 1 0 C1 2.64 1 5.28 1 8 C0.34 8 -0.32 8 -1 8 C-1.33 8.66 -1.66 9.32 -2 10 C-4.5 8.625 -4.5 8.625 -7 7 C-7 6.34 -7 5.68 -7 5 C-6.401875 4.731875 -5.80375 4.46375 -5.1875 4.1875 C-3.02529834 3.01373338 -1.68375878 1.76393777 0 0 Z " fill="#1D852B" transform="translate(39,52)"/>
<path d="M0 0 C0.61875 0.350625 1.2375 0.70125 1.875 1.0625 C2.57625 1.371875 3.2775 1.68125 4 2 C4.66 1.67 5.32 1.34 6 1 C6.33 2.98 6.66 4.96 7 7 C4.03 6.505 4.03 6.505 1 6 C1.33 5.01 1.66 4.02 2 3 C-0.97 5.475 -0.97 5.475 -4 8 C-2.87548273 5.0280615 -1.77706209 2.66559313 0 0 Z " fill="#05395A" transform="translate(18,34)"/>
<path d="M0 0 C0.33 0.66 0.66 1.32 1 2 C2.65 2 4.3 2 6 2 C6 1.34 6 0.68 6 0 C6.66 0 7.32 0 8 0 C7.67 2.31 7.34 4.62 7 7 C6.01 6.34 5.02 5.68 4 5 C4 4.34 4 3.68 4 3 C1.03 3.66 -1.94 4.32 -5 5 C-3 1 -3 1 0 0 Z " fill="#0B409D" transform="translate(33,30)"/>
<path d="M0 0 C1.65 0 3.3 0 5 0 C5 2.64 5 5.28 5 8 C3.02 8 1.04 8 -1 8 C-0.67 5.36 -0.34 2.72 0 0 Z " fill="#C7C9C8" transform="translate(167,62)"/>
<path d="M0 0 C1.98 0 3.96 0 6 0 C6 1.65 6 3.3 6 5 C3.36 5 0.72 5 -2 5 C-1.34 3.35 -0.68 1.7 0 0 Z " fill="#F124BE" transform="translate(8,38)"/>
<path d="M0 0 C2.31 0 4.62 0 7 0 C7 0.66 7 1.32 7 2 C6.01 2 5.02 2 4 2 C4.33 3.98 4.66 5.96 5 8 C4.01 8 3.02 8 2 8 C2 6.02 2 4.04 2 2 C1.34 2 0.68 2 0 2 C0 1.34 0 0.68 0 0 Z " fill="#BBBDBA" transform="translate(31,62)"/>
<path d="M0 0 C0.66 1.65 1.32 3.3 2 5 C-0.64 4.67 -3.28 4.34 -6 4 C-6 3.01 -6 2.02 -6 1 C-4 0 -4 0 0 0 Z " fill="#026EF1" transform="translate(37,33)"/>
<path d="M0 0 C0.33 0 0.66 0 1 0 C1 2.31 1 4.62 1 7 C1.99 7 2.98 7 4 7 C4 7.66 4 8.32 4 9 C2.02 9 0.04 9 -2 9 C-1.125 1.125 -1.125 1.125 0 0 Z " fill="#D0D1D0" transform="translate(130,61)"/>
<path d="M0 0 C1.0625 1.8125 1.0625 1.8125 2 4 C1.67 4.99 1.34 5.98 1 7 C0.01 6.67 -0.98 6.34 -2 6 C-2.33 5.34 -2.66 4.68 -3 4 C-5.52733235 3.34444881 -5.52733235 3.34444881 -8 3 C-8 2.67 -8 2.34 -8 2 C-6.865625 1.855625 -5.73125 1.71125 -4.5625 1.5625 C-1.19222799 1.38828522 -1.19222799 1.38828522 0 0 Z " fill="#1A7620" transform="translate(160,52)"/>
<path d="M0 0 C3.3 0 6.6 0 10 0 C10.33 1.32 10.66 2.64 11 4 C9.35 4 7.7 4 6 4 C6 3.67 6 3.34 6 3 C4.02 2.34 2.04 1.68 0 1 C0 0.67 0 0.34 0 0 Z " fill="#5B881B" transform="translate(52,44)"/>
<path d="M0 0 C2.64 0 5.28 0 8 0 C8 3 8 3 7 5 C6.34 5 5.68 5 5 5 C4.33333333 3.66666667 3.66666667 2.33333333 3 1 C2.01 1.33 1.02 1.66 0 2 C0 1.34 0 0.68 0 0 Z " fill="#8C8B8B" transform="translate(47,62)"/>
<path d="M0 0 C1.32 0 2.64 0 4 0 C4 1.65 4 3.3 4 5 C3.38125 5.144375 2.7625 5.28875 2.125 5.4375 C-0.03258322 5.93152225 -0.03258322 5.93152225 -2 7 C-1.42415568 4.61435923 -0.77772405 2.33317216 0 0 Z " fill="#C97E0B" transform="translate(8,13)"/>
<path d="M0 0 C1.65 0 3.3 0 5 0 C5 1.65 5 3.3 5 5 C3.35 4.67 1.7 4.34 0 4 C0 2.68 0 1.36 0 0 Z " fill="#DAD9D9" transform="translate(79,62)"/>
<path d="M0 0 C0.66 0.33 1.32 0.66 2 1 C1.67 2.65 1.34 4.3 1 6 C2.32 6 3.64 6 5 6 C5 6.66 5 7.32 5 8 C3.02 8.33 1.04 8.66 -1 9 C-0.67 6.03 -0.34 3.06 0 0 Z " fill="#CBCBCA" transform="translate(9,62)"/>
<path d="M0 0 C2.33944736 0.28730055 4.6739143 0.61936779 7 1 C7 1.66 7 2.32 7 3 C3.04 3 -0.92 3 -5 3 C-3.68 2.34 -2.36 1.68 -1 1 C-0.67 0.67 -0.34 0.34 0 0 Z " fill="#03D6FC" transform="translate(26,43)"/>
<path d="M0 0 C1.98 0.66 3.96 1.32 6 2 C5.01 3.485 5.01 3.485 4 5 C3.34 5 2.68 5 2 5 C1.67 5.66 1.34 6.32 1 7 C0 4 0 4 0 0 Z " fill="#3D8425" transform="translate(20,55)"/>
<path d="M0 0 C0.99 0 1.98 0 3 0 C3 0.66 3 1.32 3 2 C4.32 2.33 5.64 2.66 7 3 C7 3.33 7 3.66 7 4 C4.69 4 2.38 4 0 4 C0 2.68 0 1.36 0 0 Z " fill="#CC23C3" transform="translate(2,43)"/>
<path d="M0 0 C0.99 0.99 1.98 1.98 3 3 C0.69 3.66 -1.62 4.32 -4 5 C-4.66 4.01 -5.32 3.02 -6 2 C-4.02 2 -2.04 2 0 2 C0 1.34 0 0.68 0 0 Z " fill="#0CC5F4" transform="translate(23,41)"/>
<path d="M0 0 C0.33 0 0.66 0 1 0 C1.33 2.64 1.66 5.28 2 8 C0.68 8 -0.64 8 -2 8 C-2.33 6.35 -2.66 4.7 -3 3 C-2.34 3 -1.68 3 -1 3 C-0.67 2.01 -0.34 1.02 0 0 Z " fill="#CDCECD" transform="translate(154,62)"/>
<path d="M0 0 C1.134375 0.020625 2.26875 0.04125 3.4375 0.0625 C3.4375 1.0525 3.4375 2.0425 3.4375 3.0625 C0.5625 3.1875 0.5625 3.1875 -2.5625 3.0625 C-3.2225 2.4025 -3.8825 1.7425 -4.5625 1.0625 C-3.5625 0.0625 -3.5625 0.0625 0 0 Z " fill="#A0A09F" transform="translate(161.5625,61.9375)"/>
<path d="M0 0 C2.31 0 4.62 0 7 0 C6.34 1.32 5.68 2.64 5 4 C3.35 4 1.7 4 0 4 C0 2.68 0 1.36 0 0 Z " fill="#0345FB" transform="translate(34,28)"/>
<path d="M0 0 C0.99 0 1.98 0 3 0 C3.33 0.66 3.66 1.32 4 2 C6.52733235 2.65555119 6.52733235 2.65555119 9 3 C8.67 4.32 8.34 5.64 8 7 C7.67 6.01 7.34 5.02 7 4 C5.35 4 3.7 4 2 4 C1.34 2.68 0.68 1.36 0 0 Z " fill="#BF1F48" transform="translate(12,25)"/>
<path d="M0 0 C1.98 0.495 1.98 0.495 4 1 C4 2.65 4 4.3 4 6 C1 5 1 5 -1 3 C-0.67 2.01 -0.34 1.02 0 0 Z " fill="#BDBFBB" transform="translate(106,64)"/>
<path d="M0 0 C0.33 0 0.66 0 1 0 C1 2.97 1 5.94 1 9 C0.01 8.67 -0.98 8.34 -2 8 C-1.125 1.125 -1.125 1.125 0 0 Z " fill="#B9B9BA" transform="translate(68,61)"/>
<path d="M0 0 C0.99 0 1.98 0 3 0 C2.67 0.99 2.34 1.98 2 3 C1.34 3 0.68 3 0 3 C0 4.32 0 5.64 0 7 C-0.66 7 -1.32 7 -2 7 C-2.125 4.625 -2.125 4.625 -2 2 C-1.34 1.34 -0.68 0.68 0 0 Z " fill="#8AC326" transform="translate(52,46)"/>
<path d="M0 0 C0.66 0 1.32 0 2 0 C2 2.64 2 5.28 2 8 C1.01 7.67 0.02 7.34 -1 7 C-0.67 4.69 -0.34 2.38 0 0 Z " fill="#C9C3C3" transform="translate(136,62)"/>
<path d="M0 0 C1.65 0 3.3 0 5 0 C4.34 1.65 3.68 3.3 3 5 C1.5 3.625 1.5 3.625 0 2 C0 1.34 0 0.68 0 0 Z " fill="#FB2D96" transform="translate(23,32)"/>
<path d="M0 0 C2 1 2 1 2 1 Z " fill="#000000" transform="translate(27,36)"/>
<path d="M0 0 C2 1 2 1 2 1 Z " fill="#000000" transform="translate(21,34)"/>
<path d="" fill="#000000" transform="translate(0,0)"/>
<path d="" fill="#000000" transform="translate(0,0)"/>
<path d="" fill="#000000" transform="translate(0,0)"/>
<path d="" fill="#000000" transform="translate(0,0)"/>
<path d="" fill="#000000" transform="translate(0,0)"/>
<path d="" fill="#000000" transform="translate(0,0)"/>
<path d="" fill="#000000" transform="translate(0,0)"/>
<path d="" fill="#000000" transform="translate(0,0)"/>
<path d="" fill="#000000" transform="translate(0,0)"/>
<path d="" fill="#000000" transform="translate(0,0)"/>
<path d="" fill="#000000" transform="translate(0,0)"/>
<path d="" fill="#000000" transform="translate(0,0)"/>
<path d="" fill="#000000" transform="translate(0,0)"/>
<path d="" fill="#000000" transform="translate(0,0)"/>
<path d="" fill="#000000" transform="translate(0,0)"/>
<path d="" fill="#000000" transform="translate(0,0)"/>
<path d="" fill="#000000" transform="translate(0,0)"/>
<path d="" fill="#000000" transform="translate(0,0)"/>
<path d="" fill="#000000" transform="translate(0,0)"/>
<path d="" fill="#000000" transform="translate(0,0)"/>
<path d="" fill="#000000" transform="translate(0,0)"/>
<path d="" fill="#000000" transform="translate(0,0)"/>
<path d="" fill="#000000" transform="translate(0,0)"/>
<path d="" fill="#000000" transform="translate(0,0)"/>
<path d="" fill="#000000" transform="translate(0,0)"/>
<path d="" fill="#000000" transform="translate(0,0)"/>
<path d="" fill="#000000" transform="translate(0,0)"/>
<path d="" fill="#000000" transform="translate(0,0)"/>
<path d="" fill="#000000" transform="translate(0,0)"/>
<path d="" fill="#000000" transform="translate(0,0)"/>
<path d="" fill="#000000" transform="translate(0,0)"/>
<path d="" fill="#000000" transform="translate(0,0)"/>
<path d="" fill="#000000" transform="translate(0,0)"/>
<path d="" fill="#000000" transform="translate(0,0)"/>
<path d="" fill="#000000" transform="translate(0,0)"/>
<path d="" fill="#000000" transform="translate(0,0)"/>
<path d="" fill="#000000" transform="translate(0,0)"/>
<path d="" fill="#000000" transform="translate(0,0)"/>
<path d="" fill="#000000" transform="translate(0,0)"/>
<path d="" fill="#000000" transform="translate(0,0)"/>
<path d="" fill="#000000" transform="translate(0,0)"/>
<path d="" fill="#000000" transform="translate(0,0)"/>
<path d="" fill="#000000" transform="translate(0,0)"/>
<path d="" fill="#000000" transform="translate(0,0)"/>
<path d="" fill="#000000" transform="translate(0,0)"/>
<path d="" fill="#000000" transform="translate(0,0)"/>
<path d="" fill="#000000" transform="translate(0,0)"/>
<path d="" fill="#000000" transform="translate(0,0)"/>
<path d="" fill="#000000" transform="translate(0,0)"/>
<path d="" fill="#000000" transform="translate(0,0)"/>
<path d="" fill="#000000" transform="translate(0,0)"/>
<path d="" fill="#000000" transform="translate(0,0)"/>
<path d="" fill="#000000" transform="translate(0,0)"/>
<path d="" fill="#000000" transform="translate(0,0)"/>
<path d="" fill="#000000" transform="translate(0,0)"/>
<path d="" fill="#000000" transform="translate(0,0)"/>
<path d="" fill="#000000" transform="translate(0,0)"/>
<path d="" fill="#000000" transform="translate(0,0)"/>
<path d="" fill="#000000" transform="translate(0,0)"/>
<path d="" fill="#000000" transform="translate(0,0)"/>
<path d="" fill="#000000" transform="translate(0,0)"/>
<path d="" fill="#000000" transform="translate(0,0)"/>
<path d="" fill="#000000" transform="translate(0,0)"/>
<path d="" fill="#000000" transform="translate(0,0)"/>
<path d="" fill="#000000" transform="translate(0,0)"/>
<path d="" fill="#000000" transform="translate(0,0)"/>
<path d="" fill="#000000" transform="translate(0,0)"/>
<path d="" fill="#000000" transform="translate(0,0)"/>
<path d="" fill="#000000" transform="translate(0,0)"/>
<path d="" fill="#000000" transform="translate(0,0)"/>
<path d="" fill="#000000" transform="translate(0,0)"/>
<path d="" fill="#000000" transform="translate(0,0)"/>
<path d="" fill="#000000" transform="translate(0,0)"/>
<path d="" fill="#000000" transform="translate(0,0)"/>
<path d="" fill="#000000" transform="translate(0,0)"/>
<path d="" fill="#000000" transform="translate(0,0)"/>
<path d="" fill="#000000" transform="translate(0,0)"/>
<path d="" fill="#000000" transform="translate(0,0)"/>
<path d="" fill="#000000" transform="translate(0,0)"/>
<path d="" fill="#000000" transform="translate(0,0)"/>
<path d="" fill="#000000" transform="translate(0,0)"/>
<path d="" fill="#000000" transform="translate(0,0)"/>
<path d="" fill="#000000" transform="translate(0,0)"/>
<path d="" fill="#000000" transform="translate(0,0)"/>
<path d="" fill="#000000" transform="translate(0,0)"/>
<path d="" fill="#000000" transform="translate(0,0)"/>
<path d="" fill="#000000" transform="translate(0,0)"/>
<path d="" fill="#000000" transform="translate(0,0)"/>
<path d="" fill="#000000" transform="translate(0,0)"/>
<path d="" fill="#000000" transform="translate(0,0)"/>
<path d="" fill="#000000" transform="translate(0,0)"/>
<path d="" fill="#000000" transform="translate(0,0)"/>
<path d="" fill="#000000" transform="translate(0,0)"/>
<path d="" fill="#000000" transform="translate(0,0)"/>
<path d="" fill="#000000" transform="translate(0,0)"/>
<path d="" fill="#000000" transform="translate(0,0)"/>
<path d="" fill="#000000" transform="translate(0,0)"/>
<path d="" fill="#000000" transform="translate(0,0)"/>
<path d="" fill="#000000" transform="translate(0,0)"/>
<path d="" fill="#000000" transform="translate(0,0)"/>
<path d="" fill="#000000" transform="translate(0,0)"/>
<path d="" fill="#000000" transform="translate(0,0)"/>
<path d="" fill="#000000" transform="translate(0,0)"/>
<path d="" fill="#000000" transform="translate(0,0)"/>
<path d="" fill="#000000" transform="translate(0,0)"/>
<path d="" fill="#000000" transform="translate(0,0)"/>
<path d="" fill="#000000" transform="translate(0,0)"/>
<path d="" fill="#000000" transform="translate(0,0)"/>
<path d="" fill="#000000" transform="translate(0,0)"/>
<path d="" fill="#000000" transform="translate(0,0)"/>
<path d="" fill="#000000" transform="translate(0,0)"/>
<path d="" fill="#000000" transform="translate(0,0)"/>
<path d="" fill="#000000" transform="translate(0,0)"/>
<path d="" fill="#000000" transform="translate(0,0)"/>
<path d="" fill="#000000" transform="translate(0,0)"/>
<path d="" fill="#000000" transform="translate(0,0)"/>
<path d="" fill="#000000" transform="translate(0,0)"/>
<path d="" fill="#000000" transform="translate(0,0)"/>
<path d="" fill="#000000" transform="translate(0,0)"/>
<path d="" fill="#000000" transform="translate(0,0)"/>
<path d="" fill="#000000" transform="translate(0,0)"/>
<path d="" fill="#000000" transform="translate(0,0)"/>
<path d="" fill="#000000" transform="translate(0,0)"/>
<path d="" fill="#000000" transform="translate(0,0)"/>
<path d="" fill="#000000" transform="translate(0,0)"/>
<path d="" fill="#000000" transform="translate(0,0)"/>
<path d="" fill="#000000" transform="translate(0,0)"/>
<path d="" fill="#000000" transform="translate(0,0)"/>
<path d="" fill="#000000" transform="translate(0,0)"/>
<path d="" fill="#000000" transform="translate(0,0)"/>
</svg>
